# xmcd CD database file generated by OrangeCD 6.3
#
# Track frame offsets:
#	150
#	62148
#	84560
#	118486
#	162764
#	179231
#	207965
#	221636
#	240891
#
# Disc length: 3814 seconds
#
# Revision: 1
# Processed by: cddbd v1.5.2PL0 Copyright (c) Steve Scherf et al.
# Submitted via: OrangeCD 6.3
#
DISCID=830ee409
DTITLE=Gwiazdy Polskiej Muzyki Lat 80 - vol.21 D¿em vol. 2
DYEAR=2007
DGENRE=Blues
TTITLE0=Niewinni I Ja Cz. I i II
TTITLE1=Wiem Na Pewno Wiem - Nie Nie Kocham Cie
TTITLE2=Jesiony
TTITLE3=Och Slodka
TTITLE4=Boze Daj Dom
TTITLE5=Koszmarna Noc
TTITLE6=Czlowieku Co Sie Z Toba Dzieje
TTITLE7=Blues Alabama
TTITLE8=Najemnik II
EXTD=
EXTT0=
EXTT1=
EXTT2=
EXTT3=
EXTT4=
EXTT5=
EXTT6=
EXTT7=
EXTT8=
PLAYORDER=
